<?xml version="1.0" standalone="no"?>
<svg xmlns:xlink="http://www.w3.org/1999/xlink" xmlns="http://www.w3.org/2000/svg" class="vtree" width="960" height="800"><style>
.vtree-node text { font: 14px sans-serif; }
.vtree-link { fill: none; stroke: #888; stroke-width: 2px; }
.vtree-table { stroke-width: 2px; stroke: steelblue; }
path.vtree-table { fill: white; }
g.vtree-node rect { fill: white; stroke: black; stroke-width: 1px; }
g.vtree-node rect.number-text { fill: #d8f0ed; }
g.vtree-node rect.string-text { fill: #e7f0db; }
g.vtree-node rect.boolean-text { fill: #e1d8f0; }
g.vtree-node rect.null-text { fill: #888; }
</style><g class="vtree-root" transform="translate(144.9278359855308,232.77772287385852)scale(0.5510779149071168)"><g class="vtree-node" transform="translate(480,20)"><g class="vtree-node" transform="translate(-111,0)"><path class="vtree-link" d="M111,25C111,102.5 111,102.5 111,180"/><g class="vtree-node" transform="translate(111,99)"><g class="vtree-node" transform="translate(-117,0)"><path class="vtree-link" d="M117,81C117,182.5 -220,182.5 -220,284"/><g class="vtree-node" transform="translate(117,191)"><path class="vtree-link" d="M-337,93C-337,93 131,93 131,93"/><g class="vtree-node" transform="translate(-463,0)"><path class="vtree-link" d="M126,93C126,166 189,166 189,239"/><path class="vtree-link" d="M126,93C126,170 88,170 88,247"/><g class="vtree-node" transform="translate(30,215)"><g transform="translate(0,20)"><g transform="translate(0,0)"><rect class="string-text" x="0" y="0" width="46" height="24"/><text x="4" y="20">status</text></g><g transform="translate(46,0)"><rect class="string-text" x="0" y="0" width="70" height="24"/><text x="4" y="20">EXPIRED</text></g></g><g><text x="58" y="16" text-anchor="middle">new_data</text></g></g><g class="vtree-node" transform="translate(189,215)"><g class="vtree-node" transform="translate(-33,0)"><g transform="translate(29,20)"><rect class="null-text" x="0" y="0" width="8" height="8"/><text x="4" y="4"/></g><g><text x="33" y="16" text-anchor="middle">children[]</text></g></g></g><g transform="translate(0,20)"><g transform="translate(0,0)"><rect class="string-text" x="0" y="0" width="60" height="24"/><text x="4" y="20">_id</text></g><g transform="translate(60,0)"><rect class="string-text" x="0" y="0" width="191" height="24"/><text x="4" y="20">66d400d608a66219aa5acf07</text></g><g transform="translate(0,24)"><rect class="string-text" x="0" y="0" width="60" height="25"/><text x="4" y="21">type</text></g><g transform="translate(60,24)"><rect class="string-text" x="0" y="0" width="191" height="25"/><text x="4" y="20">LEAD</text></g><g transform="translate(0,49)"><rect class="string-text" x="0" y="0" width="60" height="24"/><text x="4" y="20">action</text></g><g transform="translate(60,49)"><rect class="string-text" x="0" y="0" width="191" height="24"/><text x="4" y="20">UPDATE</text></g><g transform="translate(0,73)"><rect class="string-text" x="0" y="0" width="60" height="24"/><text x="4" y="20">decision</text></g><g transform="translate(60,73)"><rect class="string-text" x="0" y="0" width="191" height="24"/><text x="4" y="20">outcome === uninterested</text></g><g transform="translate(0,97)"><rect class="string-text" x="0" y="0" width="60" height="24"/><text x="4" y="20">prev</text></g><g transform="translate(60,97)"><rect class="string-text" x="0" y="0" width="191" height="24"/><text x="4" y="20">66d3fcc108a66219aa5acf05</text></g><g transform="translate(0,121)"><rect class="string-text" x="0" y="0" width="60" height="24"/><text x="4" y="20">depth</text></g><g transform="translate(60,121)"><rect class="number-text" x="0" y="0" width="191" height="24"/><text x="4" y="20">1</text></g></g><g><text x="126" y="16" text-anchor="middle">children[0]</text></g></g><g class="vtree-node" transform="translate(7,0)"><path class="vtree-link" d="M124,93C124,200.5 200,200.5 200,308"/><path class="vtree-link" d="M124,93C124,170 -137,170 -137,247"/><g class="vtree-node" transform="translate(-209,215)"><g transform="translate(0,20)"><g transform="translate(0,0)"><rect class="string-text" x="0" y="0" width="46" height="24"/><text x="4" y="20">status</text></g><g transform="translate(46,0)"><rect class="string-text" x="0" y="0" width="97" height="24"/><text x="4" y="20">INTERESTED</text></g></g><g><text x="72" y="16" text-anchor="middle">new_data</text></g></g><g class="vtree-node" transform="translate(200,215)"><g class="vtree-node" transform="translate(-124,0)"><path class="vtree-link" d="M124,93C124,194.5 124,194.5 124,296"/><g class="vtree-node" transform="translate(124,215)"><g class="vtree-node" transform="translate(-119,0)"><path class="vtree-link" d="M119,81C119,182.5 -11,182.5 -11,284"/><g class="vtree-node" transform="translate(119,191)"><path class="vtree-link" d="M-130,93C-130,93 131,93 131,93"/><g class="vtree-node" transform="translate(-256,0)"><path class="vtree-link" d="M126,93C126,166.5 187,166.5 187,240"/><path class="vtree-link" d="M126,93C126,170.5 88,170.5 88,248"/><g class="vtree-node" transform="translate(32,216)"><g transform="translate(0,20)"><g transform="translate(0,0)"><rect class="string-text" x="0" y="0" width="46" height="24"/><text x="4" y="20">status</text></g><g transform="translate(46,0)"><rect class="string-text" x="0" y="0" width="66" height="24"/><text x="4" y="20">CLOSED</text></g></g><g><text x="56" y="16" text-anchor="middle">new_data</text></g></g><g class="vtree-node" transform="translate(187,216)"><g class="vtree-node" transform="translate(-33,0)"><g transform="translate(29,20)"><rect class="null-text" x="0" y="0" width="8" height="8"/><text x="4" y="4"/></g><g><text x="33" y="16" text-anchor="middle">children[]</text></g></g></g><g transform="translate(0,20)"><g transform="translate(0,0)"><rect class="string-text" x="0" y="0" width="60" height="24"/><text x="4" y="20">_id</text></g><g transform="translate(60,0)"><rect class="string-text" x="0" y="0" width="191" height="24"/><text x="4" y="20">66d4208d08a66219aa5acf0a</text></g><g transform="translate(0,24)"><rect class="string-text" x="0" y="0" width="60" height="25"/><text x="4" y="21">type</text></g><g transform="translate(60,24)"><rect class="string-text" x="0" y="0" width="191" height="25"/><text x="4" y="20">LEAD</text></g><g transform="translate(0,49)"><rect class="string-text" x="0" y="0" width="60" height="24"/><text x="4" y="20">action</text></g><g transform="translate(60,49)"><rect class="string-text" x="0" y="0" width="191" height="24"/><text x="4" y="20">UPDATE</text></g><g transform="translate(0,73)"><rect class="string-text" x="0" y="0" width="60" height="25"/><text x="4" y="20">decision</text></g><g transform="translate(60,73)"><rect class="string-text" x="0" y="0" width="191" height="25"/><text x="4" y="21">showup === yes</text></g><g transform="translate(0,98)"><rect class="string-text" x="0" y="0" width="60" height="24"/><text x="4" y="20">prev</text></g><g transform="translate(60,98)"><rect class="string-text" x="0" y="0" width="191" height="24"/><text x="4" y="20">66d4204608a66219aa5acf09</text></g><g transform="translate(0,122)"><rect class="string-text" x="0" y="0" width="60" height="24"/><text x="4" y="20">depth</text></g><g transform="translate(60,122)"><rect class="number-text" x="0" y="0" width="191" height="24"/><text x="4" y="20">4</text></g></g><g><text x="126" y="16" text-anchor="middle">children[0]</text></g></g><g class="vtree-node" transform="translate(5,0)"><path class="vtree-link" d="M126,93C126,166 189,166 189,239"/><path class="vtree-link" d="M126,93C126,170 88,170 88,247"/><g class="vtree-node" transform="translate(30,215)"><g transform="translate(0,20)"><g transform="translate(0,0)"><rect class="string-text" x="0" y="0" width="46" height="24"/><text x="4" y="20">status</text></g><g transform="translate(46,0)"><rect class="string-text" x="0" y="0" width="70" height="24"/><text x="4" y="20">EXPIRED</text></g></g><g><text x="58" y="16" text-anchor="middle">new_data</text></g></g><g class="vtree-node" transform="translate(189,215)"><g class="vtree-node" transform="translate(-33,0)"><g transform="translate(29,20)"><rect class="null-text" x="0" y="0" width="8" height="8"/><text x="4" y="4"/></g><g><text x="33" y="16" text-anchor="middle">children[]</text></g></g></g><g transform="translate(0,20)"><g transform="translate(0,0)"><rect class="string-text" x="0" y="0" width="60" height="24"/><text x="4" y="20">_id</text></g><g transform="translate(60,0)"><rect class="string-text" x="0" y="0" width="191" height="24"/><text x="4" y="20">66d4209b08a66219aa5acf0b</text></g><g transform="translate(0,24)"><rect class="string-text" x="0" y="0" width="60" height="25"/><text x="4" y="21">type</text></g><g transform="translate(60,24)"><rect class="string-text" x="0" y="0" width="191" height="25"/><text x="4" y="20">LEAD</text></g><g transform="translate(0,49)"><rect class="string-text" x="0" y="0" width="60" height="24"/><text x="4" y="20">action</text></g><g transform="translate(60,49)"><rect class="string-text" x="0" y="0" width="191" height="24"/><text x="4" y="20">UPDATE</text></g><g transform="translate(0,73)"><rect class="string-text" x="0" y="0" width="60" height="24"/><text x="4" y="20">decision</text></g><g transform="translate(60,73)"><rect class="string-text" x="0" y="0" width="191" height="24"/><text x="4" y="20">showup === no</text></g><g transform="translate(0,97)"><rect class="string-text" x="0" y="0" width="60" height="24"/><text x="4" y="20">prev</text></g><g transform="translate(60,97)"><rect class="string-text" x="0" y="0" width="191" height="24"/><text x="4" y="20">66d4204608a66219aa5acf09</text></g><g transform="translate(0,121)"><rect class="string-text" x="0" y="0" width="60" height="24"/><text x="4" y="20">depth</text></g><g transform="translate(60,121)"><rect class="number-text" x="0" y="0" width="191" height="24"/><text x="4" y="20">4</text></g></g><g><text x="126" y="16" text-anchor="middle">children[1]</text></g></g></g><g transform="translate(0,20)"><g transform="translate(0,0)"><rect class="string-text" x="0" y="0" width="46" height="24"/><text x="4" y="20">_id</text></g><g transform="translate(46,0)"><rect class="string-text" x="0" y="0" width="191" height="24"/><text x="4" y="20">66d4204608a66219aa5acf09</text></g><g transform="translate(0,24)"><rect class="string-text" x="0" y="0" width="46" height="25"/><text x="4" y="21">type</text></g><g transform="translate(46,24)"><rect class="string-text" x="0" y="0" width="191" height="25"/><text x="4" y="20">ACTIVITY</text></g><g transform="translate(0,49)"><rect class="string-text" x="0" y="0" width="46" height="24"/><text x="4" y="20">action</text></g><g transform="translate(46,49)"><rect class="string-text" x="0" y="0" width="191" height="24"/><text x="4" y="20">APPOINTMENT</text></g><g transform="translate(0,73)"><rect class="string-text" x="0" y="0" width="46" height="24"/><text x="4" y="20">prev</text></g><g transform="translate(46,73)"><rect class="string-text" x="0" y="0" width="191" height="24"/><text x="4" y="20">66d41fa608a66219aa5acf08</text></g><g transform="translate(0,97)"><rect class="string-text" x="0" y="0" width="46" height="24"/><text x="4" y="20">depth</text></g><g transform="translate(46,97)"><rect class="number-text" x="0" y="0" width="191" height="24"/><text x="4" y="20">3</text></g></g><g><text x="119" y="16" text-anchor="middle">children[0]</text></g></g></g><g transform="translate(0,20)"><g transform="translate(0,0)"><rect class="string-text" x="0" y="0" width="60" height="24"/><text x="4" y="20">_id</text></g><g transform="translate(60,0)"><rect class="string-text" x="0" y="0" width="187" height="24"/><text x="4" y="20">66d41fa608a66219aa5acf08</text></g><g transform="translate(0,24)"><rect class="string-text" x="0" y="0" width="60" height="25"/><text x="4" y="21">type</text></g><g transform="translate(60,24)"><rect class="string-text" x="0" y="0" width="187" height="25"/><text x="4" y="20">TASK</text></g><g transform="translate(0,49)"><rect class="string-text" x="0" y="0" width="60" height="24"/><text x="4" y="20">action</text></g><g transform="translate(60,49)"><rect class="string-text" x="0" y="0" width="187" height="24"/><text x="4" y="20">OPEN</text></g><g transform="translate(0,73)"><rect class="string-text" x="0" y="0" width="60" height="24"/><text x="4" y="20">decision</text></g><g transform="translate(60,73)"><rect class="string-text" x="0" y="0" width="187" height="24"/><text x="4" y="20">Book Appointment</text></g><g transform="translate(0,97)"><rect class="string-text" x="0" y="0" width="60" height="24"/><text x="4" y="20">prev</text></g><g transform="translate(60,97)"><rect class="string-text" x="0" y="0" width="187" height="24"/><text x="4" y="20">66d3fe6308a66219aa5acf06</text></g><g transform="translate(0,121)"><rect class="string-text" x="0" y="0" width="60" height="24"/><text x="4" y="20">depth</text></g><g transform="translate(60,121)"><rect class="number-text" x="0" y="0" width="187" height="24"/><text x="4" y="20">2</text></g></g><g><text x="124" y="16" text-anchor="middle">children[0]</text></g></g></g><g transform="translate(0,20)"><g transform="translate(0,0)"><rect class="string-text" x="0" y="0" width="60" height="24"/><text x="4" y="20">_id</text></g><g transform="translate(60,0)"><rect class="string-text" x="0" y="0" width="187" height="24"/><text x="4" y="20">66d3fe6308a66219aa5acf06</text></g><g transform="translate(0,24)"><rect class="string-text" x="0" y="0" width="60" height="25"/><text x="4" y="21">type</text></g><g transform="translate(60,24)"><rect class="string-text" x="0" y="0" width="187" height="25"/><text x="4" y="20">LEAD</text></g><g transform="translate(0,49)"><rect class="string-text" x="0" y="0" width="60" height="24"/><text x="4" y="20">action</text></g><g transform="translate(60,49)"><rect class="string-text" x="0" y="0" width="187" height="24"/><text x="4" y="20">UPDATE</text></g><g transform="translate(0,73)"><rect class="string-text" x="0" y="0" width="60" height="24"/><text x="4" y="20">decision</text></g><g transform="translate(60,73)"><rect class="string-text" x="0" y="0" width="187" height="24"/><text x="4" y="20">outcome === interested</text></g><g transform="translate(0,97)"><rect class="string-text" x="0" y="0" width="60" height="24"/><text x="4" y="20">prev</text></g><g transform="translate(60,97)"><rect class="string-text" x="0" y="0" width="187" height="24"/><text x="4" y="20">66d3fcc108a66219aa5acf05</text></g><g transform="translate(0,121)"><rect class="string-text" x="0" y="0" width="60" height="24"/><text x="4" y="20">depth</text></g><g transform="translate(60,121)"><rect class="number-text" x="0" y="0" width="187" height="24"/><text x="4" y="20">1</text></g></g><g><text x="124" y="16" text-anchor="middle">children[1]</text></g></g></g><g transform="translate(0,20)"><g transform="translate(0,0)"><rect class="string-text" x="0" y="0" width="46" height="24"/><text x="4" y="20">_id</text></g><g transform="translate(46,0)"><rect class="string-text" x="0" y="0" width="187" height="24"/><text x="4" y="20">66d3fcc108a66219aa5acf05</text></g><g transform="translate(0,24)"><rect class="string-text" x="0" y="0" width="46" height="25"/><text x="4" y="21">type</text></g><g transform="translate(46,24)"><rect class="string-text" x="0" y="0" width="187" height="25"/><text x="4" y="20">ACTIVITY</text></g><g transform="translate(0,49)"><rect class="string-text" x="0" y="0" width="46" height="24"/><text x="4" y="20">action</text></g><g transform="translate(46,49)"><rect class="string-text" x="0" y="0" width="187" height="24"/><text x="4" y="20">CALL_OUTCOME</text></g><g transform="translate(0,73)"><rect class="string-text" x="0" y="0" width="46" height="24"/><text x="4" y="20">prev</text></g><g transform="translate(46,73)"><rect class="string-text" x="0" y="0" width="187" height="24"/><text x="4" y="20">66d3f99508a66219aa5acf04</text></g><g transform="translate(0,97)"><rect class="string-text" x="0" y="0" width="46" height="24"/><text x="4" y="20">depth</text></g><g transform="translate(46,97)"><rect class="number-text" x="0" y="0" width="187" height="24"/><text x="4" y="20">0</text></g></g><g><text x="117" y="16" text-anchor="middle">children[0]</text></g></g></g><g transform="translate(0,0)"><rect class="string-text" x="0" y="0" width="35" height="24"/><text x="4" y="20">_id</text></g><g transform="translate(35,0)"><rect class="string-text" x="0" y="0" width="187" height="24"/><text x="4" y="20">66d3f99508a66219aa5acf04</text></g><g transform="translate(0,24)"><rect class="string-text" x="0" y="0" width="35" height="25"/><text x="4" y="21">type</text></g><g transform="translate(35,24)"><rect class="string-text" x="0" y="0" width="187" height="25"/><text x="4" y="20">ROOT</text></g></g></g></g></svg>